<?xml version="1.0" encoding="utf-8"?>
<svg version="1.1" xmlns="http://www.w3.org/2000/svg" x="0px" y="0px"
     viewBox="0 0 585.2 646.1" style="enable-background:new 0 0 585.2 646.1;">
<g>
	<path class="st0" d="M537.4,126.5l-197-113.7c-29.6-17.1-66-17.1-95.6,0L47.8,126.5C18.2,143.6,0,175.2,0,209.3v227.4
		c0,34.2,18.2,65.7,47.8,82.8l196.9,113.7c29.6,17.1,66.1,17.1,95.6,0l197-113.7c29.6-17.1,47.8-48.6,47.8-82.8V209.3
		C585.2,175.2,567,143.6,537.4,126.5z M201.7,89.5c3.6-6.2,9.9-9.8,17-9.8h147.7c7.1,0,13.5,3.7,17,9.8c3.6,6.2,3.6,13.5,0,19.7
		l-73.9,127.9c-3.6,6.2-9.9,9.8-17,9.8s-13.5-3.7-17-9.8l-73.9-127.9C198.1,103,198.1,95.7,201.7,89.5z M218.9,352.3
		c-9.2,0-16.6-7.4-16.6-16.6c0-9.2,7.4-16.6,16.6-16.6c9.2,0,16.6,7.4,16.6,16.6C235.5,344.9,228,352.3,218.9,352.3z M224.3,284.8
		c-31.6,0-57.4,25.7-57.4,57.4v158.6c0,14.3,11.7,26,26,26c5.2,0,9.4,4.2,9.4,9.3c0,5.2-4.2,9.3-9.4,9.3c-24.6,0-44.6-20-44.6-44.6
		V342.2c0-41.9,34.1-76,76-76H286c10.3,0,20.1,5,26.2,13.4c7.3,10.1,15,26.8,10.3,49.2c-2.5,11.8-8.3,23.2-16.7,33
		c-9.4,11-25.3,25-47.5,29.9c-5,1.1-10-2.1-11.1-7.1c-1.1-5,2.1-10,7.1-11.1c17.2-3.8,29.8-15,37.3-23.8c6.4-7.4,10.7-16,12.6-24.7
		c3.3-15.7-2.1-27.3-7.1-34.3c-2.6-3.5-6.7-5.7-11-5.7H224.3z M436.9,516.4c0,22.9-18.6,41.5-41.5,41.5c-22.9,0-41.5-18.6-41.5-41.5
		v-60.7c0-7.2-5.8-13-13-13c-7.2,0-13,5.8-13,13v60.7c0,22.9-18.6,41.5-41.5,41.5s-41.5-18.6-41.5-41.5v-87.2c0-5.2,4.2-9.4,9.3-9.4
		c5.2,0,9.3,4.2,9.3,9.4v87.2c0,12.6,10.3,22.8,22.8,22.8s22.8-10.3,22.8-22.8v-60.7c0-17.5,14.2-31.7,31.7-31.7
		c17.5,0,31.7,14.2,31.7,31.7v60.7c0,12.6,10.2,22.8,22.8,22.8c12.6,0,22.8-10.3,22.8-22.8V338.1c0-29.3-23.9-53.2-53.2-53.2h-27.3
		c-2-6.8-5.1-13-9-18.7H365c39.6,0,71.9,32.3,71.9,71.9V516.4z M367.8,98.6c-0.3-0.5-0.7-0.8-1.3-0.8h-64.8v116.8l66.1-114.5
		C368.1,99.6,368.1,99.1,367.8,98.6z M283.5,214.6V97.8h-64.8c-0.6,0-1,0.3-1.3,0.8c-0.3,0.5-0.3,1,0,1.5L283.5,214.6z"/>
</g>
</svg>
