<?xml version="1.0" encoding="UTF-8" standalone="no"?>
<svg
   version="1.1"
   id="Слой_1"
   x="0px"
   y="0px"
   viewBox="0 0 585.2 646.1"
   style="enable-background:new 0 0 585.2 646.1;"
   xml:space="preserve"
   xmlns="http://www.w3.org/2000/svg"><defs
   id="defs16"><linearGradient
     id="linearGradient1715"
     gradientUnits="userSpaceOnUse"
     x1="168.0697"
     y1="74.014099"
     x2="427.07419"
     y2="592.02319"><stop
       offset="0"
       style="stop-color:#00B3F2"
       id="stop4-3" /><stop
       offset="1"
       style="stop-color:#007ED0"
       id="stop6-6" /></linearGradient></defs>
<style
   type="text/css"
   id="style2">
	.st0{fill:url(#SVGID_1_);}
</style>
<g
   id="g11">
	<linearGradient
   id="SVGID_1_"
   gradientUnits="userSpaceOnUse"
   x1="168.0697"
   y1="74.0141"
   x2="427.0742"
   y2="592.0232"
   gradientTransform="translate(1.9861109)">
		<stop
   offset="0"
   style="stop-color:#00B3F2"
   id="stop4" />
		<stop
   offset="1"
   style="stop-color:#007ED0"
   id="stop6" />
	</linearGradient>
	<path
   class="st0"
   d="m 534.48911,130.43005 -193.06,-111.426007 c -29.008,-16.7579997 -64.67315,-16.7461319 -93.688,0 L 54.681112,130.43005 c -29.01485,16.74613 -46.844,47.726 -46.844,81.144 v 222.852 c 0,33.516 17.836,64.386 46.844,81.144 l 192.961998,111.426 c 29.008,16.758 64.778,16.758 93.688,0 l 193.06,-111.426 c 29.00801,-16.758 46.84401,-47.628 46.84401,-81.144 v -222.852 c 0.098,-33.418 -17.738,-64.386 -46.74601,-81.144 z"
   id="path9-7"
   style="fill:#ffffff;stroke-width:0.98" /><path
   class="st0"
   d="m 539.38611,126.5 -197,-113.7 c -29.6,-17.1 -65.99301,-17.0878928 -95.6,0 L 49.786111,126.5 C 20.17912,143.58789 1.9861109,175.2 1.9861109,209.3 v 227.4 c 0,34.2 18.2000001,65.7 47.8000001,82.8 L 246.68611,633.2 c 29.6,17.1 66.1,17.1 95.6,0 l 197,-113.7 c 29.6,-17.1 47.8,-48.6 47.8,-82.8 V 209.3 c 0.1,-34.1 -18.1,-65.7 -47.7,-82.8 z m -335.7,-37 c 3.6,-6.2 9.9,-9.8 17,-9.8 h 147.7 c 7.1,0 13.5,3.7 17,9.8 3.6,6.2 3.6,13.5 0,19.7 l -73.9,127.9 c -3.6,6.2 -9.9,9.8 -17,9.8 -7.1,0 -13.5,-3.7 -17,-9.8 l -73.9,-127.9 c -3.5,-6.2 -3.5,-13.5 0.1,-19.7 z m 17.2,262.8 c -9.2,0 -16.6,-7.4 -16.6,-16.6 0,-9.2 7.4,-16.6 16.6,-16.6 9.2,0 16.6,7.4 16.6,16.6 0,9.2 -7.5,16.6 -16.6,16.6 z m 5.4,-67.5 c -31.6,0 -57.4,25.7 -57.4,57.4 v 158.6 c 0,14.3 11.7,26 26,26 5.2,0 9.4,4.2 9.4,9.3 0,5.2 -4.2,9.3 -9.4,9.3 -24.6,0 -44.6,-20 -44.6,-44.6 V 342.2 c 0,-41.9 34.1,-76 76,-76 h 61.7 c 10.3,0 20.1,5 26.2,13.4 7.3,10.1 15,26.8 10.3,49.2 -2.5,11.8 -8.3,23.2 -16.7,33 -9.4,11 -25.3,25 -47.5,29.9 -5,1.1 -10,-2.1 -11.1,-7.1 -1.1,-5 2.1,-10 7.1,-11.1 17.2,-3.8 29.8,-15 37.3,-23.8 6.4,-7.4 10.7,-16 12.6,-24.7 3.3,-15.7 -2.1,-27.3 -7.1,-34.3 -2.6,-3.5 -6.7,-5.7 -11,-5.7 h -61.8 z m 212.6,231.6 c 0,22.9 -18.6,41.5 -41.5,41.5 -22.9,0 -41.5,-18.6 -41.5,-41.5 v -60.7 c 0,-7.2 -5.8,-13 -13,-13 -7.2,0 -13,5.8 -13,13 v 60.7 c 0,22.9 -18.6,41.5 -41.5,41.5 -22.9,0 -41.5,-18.6 -41.5,-41.5 v -87.2 c 0,-5.2 4.2,-9.4 9.3,-9.4 5.2,0 9.3,4.2 9.3,9.4 v 87.2 c 0,12.6 10.3,22.8 22.8,22.8 12.5,0 22.8,-10.3 22.8,-22.8 v -60.7 c 0,-17.5 14.2,-31.7 31.7,-31.7 17.5,0 31.7,14.2 31.7,31.7 v 60.7 c 0,12.6 10.2,22.8 22.8,22.8 12.6,0 22.8,-10.3 22.8,-22.8 V 338.1 c 0,-29.3 -23.9,-53.2 -53.2,-53.2 h -27.3 c -2,-6.8 -5.1,-13 -9,-18.7 h 36.4 c 39.6,0 71.9,32.3 71.9,71.9 z m -69.1,-417.8 c -0.3,-0.5 -0.7,-0.8 -1.3,-0.8 h -64.8 v 116.8 l 66.1,-114.5 c 0.3,-0.5 0.3,-1 0,-1.5 z m -84.3,116 V 97.8 h -64.8 c -0.6,0 -1,0.3 -1.3,0.8 -0.3,0.5 -0.3,1 0,1.5 z"
   id="path9"
   style="fill:url(#SVGID_1_)" />
</g>
</svg>
